<?xml version="1.0" encoding="iso-8859-1"?>
<!-- Generator: Adobe Illustrator 19.0.0, SVG Export Plug-In . SVG Version: 6.00 Build 0)  -->
<svg version="1.1" id="Layer_1" xmlns="http://www.w3.org/2000/svg" xmlns:xlink="http://www.w3.org/1999/xlink" x="0px" y="0px"
	 viewBox="0 0 459.085 459.085" style="enable-background:new 0 0 459.085 459.085;" xml:space="preserve">
<g>
	<g>
		<g fill="#00af9d">
			<path d="M385.975,330.594H275.859v-14.065h-65.285c-6.044,0-11.999-1.485-17.334-4.21v18.275H83.124
				c-10.898,0-19.734,8.835-19.734,19.733s8.835,19.733,19.734,19.733h31.46c-0.485,1.666-0.758,3.422-0.758,5.244
				c0,10.346,8.387,18.733,18.733,18.733c10.346,0,18.733-8.387,18.733-18.733c0-1.822-0.273-3.579-0.758-5.244h168.033
				c-0.485,1.666-0.758,3.422-0.758,5.244c0,10.346,8.387,18.733,18.733,18.733s18.733-8.387,18.733-18.733
				c0-1.822-0.273-3.579-0.758-5.244h31.46c10.898,0,19.734-8.835,19.734-19.733S396.874,330.594,385.975,330.594z"/>
			<path d="M425.221,223.281c0-10.318-8.364-18.683-18.682-18.683h-3.899v37.365h3.899
				C416.857,241.963,425.221,233.599,425.221,223.281z"/>
			<path d="M106.184,179.69l66.906,44.189l0.447-42.293l-36.114-17.006c64.089,11.413,59.87,10.767,61.833,10.767
				c4.212,0,8.291-1.712,11.255-4.812l42.975-44.967c5.941-6.216,5.717-16.071-0.499-22.012c-6.215-5.942-16.07-5.717-22.012,0.498
				l-37.208,38.933l-50.885-9.062l39.755-3.494l-25.102-19.569c-10.111-7.882-24.697-6.076-32.579,4.035l-24.285,31.151
				C92.355,156.713,94.887,172.229,106.184,179.69z"/>
			<circle cx="71.391" cy="99.41" r="34.363"/>
			<path d="M442.908,271.446H402.64v7.023c0,9.719-3.667,18.595-9.683,25.328h49.952c8.934,0,16.176-7.242,16.176-16.176
				C459.085,278.687,451.841,271.446,442.908,271.446z"/>
			<path d="M172.912,240.624L25.066,143.388c-7.463-4.909-17.494-2.838-22.403,4.627c-4.909,7.464-2.838,17.494,4.626,22.403
				l165.243,108.678C172.508,277.745,172.47,282.455,172.912,240.624z"/>
			<path d="M192.221,190.385l-0.929,87.88c-0.114,10.728,8.56,19.487,19.282,19.487h154.005c10.65,0,19.283-8.634,19.283-19.283
				v-78.352c0-17.818-11.73-33.51-28.819-38.554l-88.608-26.153c-0.929,1.09,2.376-2.405-44.2,46.329
				C217.698,186.488,209.082,198.324,192.221,190.385z"/>
		</g>
	</g>
</g>
<g>
</g>
<g>
</g>
<g>
</g>
<g>
</g>
<g>
</g>
<g>
</g>
<g>
</g>
<g>
</g>
<g>
</g>
<g>
</g>
<g>
</g>
<g>
</g>
<g>
</g>
<g>
</g>
<g>
</g>
</svg>
